<svg width="30" height="30" viewBox="0 0 30 30" fill="none" xmlns="http://www.w3.org/2000/svg">
<path d="M17.5493 15.5649C17.4504 15.5224 17.3662 15.4519 17.3071 15.362C17.2479 15.2721 17.2164 15.1669 17.2165 15.0593C17.2157 14.9824 17.2309 14.9062 17.2608 14.8354C17.2908 14.7647 17.335 14.7008 17.3907 14.6478C17.4247 14.6154 17.4572 14.5835 17.4816 14.5578C17.654 14.3763 17.8061 14.1766 17.9351 13.9622C18.2746 13.3956 18.4429 12.7429 18.4197 12.0828C18.3965 11.4227 18.1828 10.7834 17.8043 10.2421C17.4258 9.70076 16.8988 9.28053 16.2868 9.03209C15.6748 8.78364 15.004 8.71761 14.3553 8.84195C13.6942 8.95771 13.0833 9.26968 12.602 9.73731C12.1206 10.2049 11.7911 10.8066 11.6562 11.464C11.5316 12.0301 11.5528 12.6185 11.7179 13.1742C11.8829 13.7298 12.1864 14.2344 12.5999 14.6406C12.656 14.6938 12.7009 14.7577 12.732 14.8284C12.763 14.8992 12.7797 14.9755 12.7809 15.0528V15.0557C12.7819 15.1641 12.7509 15.2705 12.6916 15.3614C12.6324 15.4523 12.5477 15.5237 12.4481 15.5666C11.0845 16.1314 9.99719 17.2089 9.41997 18.5672C9.01417 19.4975 8.81062 20.5033 8.82278 21.5182V22.2494C8.82278 22.4062 8.85367 22.5615 8.9137 22.7064C8.97372 22.8513 9.0617 22.9829 9.1726 23.0938C9.2835 23.2046 9.41516 23.2926 9.56006 23.3526C9.70495 23.4125 9.86024 23.4434 10.0171 23.4433H19.9832C20.2998 23.4433 20.6034 23.3175 20.8272 23.0936C21.0511 22.8698 21.1769 22.5661 21.1769 22.2495V21.5109C21.189 20.4965 20.9851 19.4911 20.5787 18.5615C20.0004 17.2044 18.9126 16.1284 17.5493 15.5649Z" fill="#E9C400"/>
<path d="M28.5384 16.9126C27.9602 15.5556 26.8726 14.4796 25.5093 13.9161C25.4105 13.8735 25.3263 13.803 25.2672 13.7131C25.2081 13.6233 25.1765 13.518 25.1765 13.4105C25.1758 13.3336 25.1909 13.2574 25.2209 13.1866C25.2509 13.1158 25.2951 13.0519 25.3508 12.9989C25.3848 12.9665 25.4174 12.9346 25.4417 12.9089C25.6141 12.7275 25.7662 12.5279 25.8952 12.3135C26.2348 11.747 26.4031 11.0943 26.38 10.4342C26.3568 9.77404 26.143 9.13475 25.7646 8.59341C25.3861 8.05207 24.8591 7.63182 24.247 7.38338C23.635 7.13494 22.9642 7.06892 22.3155 7.19329C21.6544 7.30901 21.0435 7.62097 20.5621 8.0886C20.0807 8.55624 19.7512 9.1579 19.6164 9.81534C19.4918 10.3814 19.513 10.9699 19.678 11.5255C19.8431 12.0811 20.1465 12.5857 20.56 12.992C20.6161 13.0451 20.661 13.109 20.6921 13.1797C20.7232 13.2505 20.7398 13.3268 20.741 13.4041V13.407C20.742 13.5155 20.711 13.6219 20.6518 13.7128C20.5926 13.8037 20.5078 13.8751 20.4082 13.918C19.8636 14.1411 19.358 14.4494 18.9104 14.8314C20.1663 15.5761 21.154 16.6995 21.7317 18.0404C22.2138 19.1334 22.4561 20.317 22.4424 21.5115V21.7948H27.9429C28.2595 21.7948 28.5631 21.669 28.787 21.4452C29.0109 21.2213 29.1367 20.9177 29.1367 20.6011V19.8621C29.1488 18.8476 28.9449 17.8422 28.5384 16.9126V16.9126Z" fill="#323232"/>
<path d="M11.0906 14.8311C10.642 14.4481 10.1353 14.1392 9.58935 13.9161C9.49054 13.8735 9.40636 13.803 9.34721 13.7131C9.28807 13.6233 9.25654 13.518 9.25653 13.4105C9.25585 13.3336 9.27098 13.2574 9.30098 13.1866C9.33099 13.1158 9.37523 13.0519 9.43096 12.9989C9.4648 12.9665 9.49742 12.9346 9.5218 12.9089C9.69413 12.7275 9.84617 12.5279 9.97522 12.3136C10.3148 11.747 10.4831 11.0943 10.46 10.4342C10.4368 9.77405 10.2231 9.13475 9.84461 8.5934C9.46615 8.05206 8.9391 7.63181 8.32708 7.38337C7.71506 7.13494 7.04422 7.06892 6.39552 7.1933C5.73446 7.30904 5.12351 7.62101 4.64214 8.08863C4.16077 8.55626 3.83124 9.15792 3.69641 9.81535C3.57181 10.3814 3.59302 10.9699 3.75807 11.5255C3.92311 12.0811 4.22658 12.5857 4.64 12.992C4.69613 13.0451 4.74106 13.109 4.77215 13.1798C4.80323 13.2505 4.81986 13.3268 4.82103 13.4041V13.4071C4.82206 13.5155 4.79102 13.6219 4.73181 13.7128C4.6726 13.8037 4.58786 13.8751 4.48822 13.918C3.12469 14.4828 2.03735 15.5603 1.4601 16.9186C1.05428 17.8488 0.850696 18.8547 0.862816 19.8695V20.6011C0.86281 20.7579 0.893682 20.9131 0.95367 21.0579C1.01366 21.2028 1.10159 21.3344 1.21243 21.4452C1.32328 21.556 1.45488 21.644 1.59971 21.704C1.74454 21.764 1.89977 21.7948 2.05653 21.7948H7.5575V21.5186C7.54383 20.3241 7.78559 19.1405 8.26658 18.0471C8.8438 16.7032 9.83258 15.5772 11.0906 14.8311V14.8311Z" fill="#323232"/>
</svg>
