<svg width="30" height="30" viewBox="0 0 30 30" fill="none" xmlns="http://www.w3.org/2000/svg">
<path d="M21.104 6.7583H5.70768C5.60046 6.7583 5.51469 6.7583 5.40747 6.77974V24.8136C5.51469 24.8136 5.60046 24.835 5.70768 24.835H21.104C23.4628 24.835 25.3712 24.835 25.3712 20.9538V10.661C25.3927 6.7583 23.4628 6.7583 21.104 6.7583Z" fill="#323232"/>
<g opacity="0.5">
<g opacity="0.5">
<g opacity="0.5">
<path opacity="0.5" d="M21.104 6.7583H5.70768C5.60046 6.7583 5.51469 6.7583 5.40747 6.77974V24.8136C5.51469 24.8136 5.60046 24.835 5.70768 24.835H21.104C23.4628 24.835 25.3712 24.835 25.3712 20.9538V10.661C25.3927 6.7583 23.4628 6.7583 21.104 6.7583Z" fill="#E9C400"/>
</g>
</g>
</g>
<path d="M21.104 25.1997H5.70767C5.6219 25.1997 5.51468 25.1997 5.42891 25.1783C5.21447 25.1569 5.02148 24.9853 5.02148 24.7709V6.75846C5.02148 6.54402 5.19303 6.37248 5.40746 6.35103H5.45035C5.53612 6.35103 5.6219 6.32959 5.70767 6.32959H21.104C23.3984 6.32959 25.7786 6.32959 25.7786 10.6183V20.9111C25.7786 25.1997 23.4199 25.1997 21.104 25.1997ZM5.83633 24.4063H21.1254C23.4628 24.4063 25.0067 24.4063 25.0067 20.9325V10.6397C25.0067 7.16588 23.4628 7.16588 21.1254 7.16588H5.83633V24.4063Z" fill="#E9C400"/>
<path d="M21.104 5.42896H5.70768C5.60046 5.42896 5.51469 5.42896 5.40747 5.4504V23.4843C5.51469 23.4843 5.60046 23.5057 5.70768 23.5057H21.104C23.4628 23.5057 25.3712 23.5057 25.3712 19.6245V9.33164C25.3927 5.42896 23.4628 5.42896 21.104 5.42896Z" fill="#323232"/>
<path d="M21.104 23.8701H5.70767C5.6219 23.8701 5.53612 23.8701 5.45035 23.8487H5.40746C5.19303 23.8273 5.02148 23.6557 5.02148 23.4413V5.42887C5.02148 5.21443 5.19303 5.04289 5.40746 5.02144H5.45035C5.53612 5.02144 5.6219 5 5.70767 5H21.104C23.3984 5 25.7786 5 25.7786 9.28867V19.5815C25.7786 23.8701 23.4199 23.8701 21.104 23.8701ZM5.83633 23.0767H21.1254C23.4628 23.0767 25.0067 23.0767 25.0067 19.6029V9.31011C25.0067 5.83629 23.4628 5.83629 21.1254 5.83629H5.83633V23.0767Z" fill="#E9C400"/>
<path d="M22.9697 21.1896H21.5544C21.34 21.1896 21.147 21.018 21.147 20.7822C21.147 20.5677 21.3185 20.3747 21.5544 20.3747H22.5622V19.3669C22.5622 19.1525 22.7338 18.9595 22.9697 18.9595C23.2055 18.9595 23.3771 19.131 23.3771 19.3669V20.7822C23.3771 21.018 23.2055 21.1896 22.9697 21.1896Z" fill="#E9C400"/>
<path d="M18.6166 21.1896H15.6789C15.4644 21.1896 15.2714 21.0181 15.2714 20.7822C15.2714 20.5677 15.443 20.3748 15.6789 20.3748H18.6166C18.831 20.3748 19.024 20.5463 19.024 20.7822C19.024 21.0181 18.8525 21.1896 18.6166 21.1896ZM12.7197 21.1896H9.78194C9.5675 21.1896 9.37451 21.0181 9.37451 20.7822C9.37451 20.5677 9.54606 20.3748 9.78194 20.3748H12.7197C12.9341 20.3748 13.1271 20.5463 13.1271 20.7822C13.1271 21.0181 12.9556 21.1896 12.7197 21.1896Z" fill="#E9C400"/>
<path d="M6.82268 21.1896H5.40742C5.19299 21.1896 5 21.018 5 20.7822V19.3669C5 19.1525 5.17155 18.9595 5.40742 18.9595C5.6433 18.9595 5.81485 19.131 5.81485 19.3669V20.3747H6.82268C7.03712 20.3747 7.23011 20.5463 7.23011 20.7822C7.23011 21.018 7.05856 21.1896 6.82268 21.1896Z" fill="#E9C400"/>
<path d="M5.42891 16.3649C5.21447 16.3649 5.02148 16.1934 5.02148 15.9575V12.5266C5.02148 12.3121 5.19303 12.1191 5.42891 12.1191C5.66478 12.1191 5.83633 12.2907 5.83633 12.5266V15.9575C5.83633 16.1719 5.64334 16.3649 5.42891 16.3649Z" fill="#E9C400"/>
<path d="M5.42891 9.50306C5.21447 9.50306 5.02148 9.33151 5.02148 9.09563V7.68037C5.02148 7.46594 5.19303 7.27295 5.42891 7.27295H6.84417C7.0586 7.27295 7.25159 7.4445 7.25159 7.68037C7.25159 7.89481 7.08005 8.0878 6.84417 8.0878H5.83633V9.09563C5.83633 9.31007 5.64334 9.50306 5.42891 9.50306Z" fill="#E9C400"/>
<path d="M18.6166 8.0878H15.6789C15.4644 8.0878 15.2714 7.91625 15.2714 7.68037C15.2714 7.46594 15.443 7.27295 15.6789 7.27295H18.6166C18.831 7.27295 19.024 7.4445 19.024 7.68037C19.024 7.91625 18.8525 8.0878 18.6166 8.0878ZM12.7197 8.0878H9.78194C9.5675 8.0878 9.37451 7.91625 9.37451 7.68037C9.37451 7.46594 9.54606 7.27295 9.78194 7.27295H12.7197C12.9341 7.27295 13.1271 7.4445 13.1271 7.68037C13.1271 7.91625 12.9556 8.0878 12.7197 8.0878Z" fill="#E9C400"/>
<path d="M22.9697 9.50306C22.7552 9.50306 22.5622 9.33151 22.5622 9.09563V8.0878H21.5544C21.34 8.0878 21.147 7.91625 21.147 7.68037C21.147 7.46594 21.3185 7.27295 21.5544 7.27295H22.9697C23.1841 7.27295 23.3771 7.4445 23.3771 7.68037V9.09563C23.3771 9.31007 23.2055 9.50306 22.9697 9.50306Z" fill="#E9C400"/>
<path d="M22.9694 16.3649C22.755 16.3649 22.562 16.1934 22.562 15.9575V12.5266C22.562 12.3121 22.7336 12.1191 22.9694 12.1191C23.2053 12.1191 23.3769 12.2907 23.3769 12.5266V15.9575C23.3769 16.1719 23.2053 16.3649 22.9694 16.3649Z" fill="#E9C400"/>
<path d="M25.3927 16.8153H21.5114C20.4392 16.8153 19.5601 15.9361 19.5601 14.864V13.5988C19.5601 12.5266 20.4392 11.6475 21.5114 11.6475H25.3927C25.6071 11.6475 25.8001 11.819 25.8001 12.0549V16.4079C25.7786 16.6223 25.6071 16.8153 25.3927 16.8153ZM21.5114 12.4409C20.8681 12.4409 20.3535 12.9555 20.3535 13.5988V14.864C20.3535 15.5073 20.8681 16.0219 21.5114 16.0219H24.9852V12.4409H21.5114Z" fill="#E9C400"/>
<path d="M25.3927 12.0334H21.5114C20.6537 12.0334 19.9675 12.7411 19.9675 13.5774V14.8425C19.9675 15.7003 20.6752 16.3864 21.5114 16.3864H25.3927V12.0334Z" fill="#E9C400"/>
<path d="M25.3927 16.8153H21.5114C20.4392 16.8153 19.5601 15.9361 19.5601 14.864V13.5988C19.5601 12.5266 20.4392 11.6475 21.5114 11.6475H25.3927C25.6071 11.6475 25.8001 11.819 25.8001 12.0549V16.4079C25.7786 16.6223 25.6071 16.8153 25.3927 16.8153ZM21.5114 12.4409C20.8681 12.4409 20.3535 12.9555 20.3535 13.5988V14.864C20.3535 15.5073 20.8681 16.0219 21.5114 16.0219H24.9852V12.4409H21.5114Z" fill="#E9C400"/>
<path d="M22.0688 15.2711C22.6491 15.2711 23.1195 14.8007 23.1195 14.2204C23.1195 13.6401 22.6491 13.1697 22.0688 13.1697C21.4885 13.1697 21.0181 13.6401 21.0181 14.2204C21.0181 14.8007 21.4885 15.2711 22.0688 15.2711Z" fill="white"/>
<path d="M22.069 15.6787C21.2756 15.6787 20.6108 15.0354 20.6108 14.2206C20.6108 13.4272 21.2541 12.7625 22.069 12.7625C22.8624 12.7625 23.5271 13.4058 23.5271 14.2206C23.5271 15.0354 22.8624 15.6787 22.069 15.6787ZM22.069 13.5773C21.7045 13.5773 21.4257 13.8775 21.4257 14.2206C21.4257 14.5851 21.7259 14.8639 22.069 14.8639C22.4335 14.8639 22.7123 14.5637 22.7123 14.2206C22.7123 13.8561 22.4335 13.5773 22.069 13.5773Z" fill="#E9C400"/>
</svg>
