<svg width="30" height="30" viewBox="0 0 30 30" fill="none" xmlns="http://www.w3.org/2000/svg">
<path d="M21.1039 6.7583H5.70756C5.60034 6.7583 5.51457 6.7583 5.40735 6.77974V24.8136C5.51457 24.8136 5.60034 24.835 5.70756 24.835H21.1039C23.4627 24.835 25.3711 24.835 25.3711 20.9538V10.661C25.3925 6.7583 23.4627 6.7583 21.1039 6.7583Z" fill="#323232"/>
<g opacity="0.5">
<g opacity="0.5">
<g opacity="0.5">
<path opacity="0.5" d="M21.1039 6.7583H5.70756C5.60034 6.7583 5.51457 6.7583 5.40735 6.77974V24.8136C5.51457 24.8136 5.60034 24.835 5.70756 24.835H21.1039C23.4627 24.835 25.3711 24.835 25.3711 20.9538V10.661C25.3925 6.7583 23.4627 6.7583 21.1039 6.7583Z" fill="#E9C400"/>
</g>
</g>
</g>
<path d="M21.104 25.1997H5.70767C5.6219 25.1997 5.51468 25.1997 5.42891 25.1783C5.21447 25.1569 5.02148 24.9853 5.02148 24.7709V6.75846C5.02148 6.54402 5.19303 6.37248 5.40746 6.35103H5.45035C5.53612 6.35103 5.6219 6.32959 5.70767 6.32959H21.104C23.3984 6.32959 25.7786 6.32959 25.7786 10.6183V20.9111C25.7786 25.1997 23.4199 25.1997 21.104 25.1997ZM5.83633 24.4063H21.1254C23.4628 24.4063 25.0067 24.4063 25.0067 20.9325V10.6397C25.0067 7.16588 23.4628 7.16588 21.1254 7.16588H5.83633V24.4063Z" fill="#E9C400"/>
<path d="M21.1039 5.42896H5.70756C5.60034 5.42896 5.51457 5.42896 5.40735 5.4504V23.4843C5.51457 23.4843 5.60034 23.5057 5.70756 23.5057H21.1039C23.4627 23.5057 25.3711 23.5057 25.3711 19.6245V9.33164C25.3925 5.42896 23.4627 5.42896 21.1039 5.42896Z" fill="white"/>
<path d="M21.104 23.8701H5.70767C5.6219 23.8701 5.53612 23.8701 5.45035 23.8487H5.40746C5.19303 23.8273 5.02148 23.6557 5.02148 23.4413V5.42887C5.02148 5.21443 5.19303 5.04289 5.40746 5.02144H5.45035C5.53612 5.02144 5.6219 5 5.70767 5H21.104C23.3984 5 25.7786 5 25.7786 9.28867V19.5815C25.7786 23.8701 23.4199 23.8701 21.104 23.8701ZM5.83633 23.0767H21.1254C23.4628 23.0767 25.0067 23.0767 25.0067 19.6029V9.31011C25.0067 5.83629 23.4628 5.83629 21.1254 5.83629H5.83633V23.0767Z" fill="#E9C400"/>
<path d="M22.9695 21.1896H21.5543C21.3398 21.1896 21.1469 21.018 21.1469 20.7822C21.1469 20.5677 21.3184 20.3747 21.5543 20.3747H22.5621V19.3669C22.5621 19.1525 22.7337 18.9595 22.9695 18.9595C23.2054 18.9595 23.377 19.131 23.377 19.3669V20.7822C23.377 21.018 23.2054 21.1896 22.9695 21.1896Z" fill="#E9C400"/>
<path d="M18.6165 21.1896H15.6787C15.4643 21.1896 15.2713 21.0181 15.2713 20.7822C15.2713 20.5677 15.4429 20.3748 15.6787 20.3748H18.6165C18.8309 20.3748 19.0239 20.5463 19.0239 20.7822C19.0239 21.0181 18.8524 21.1896 18.6165 21.1896ZM12.7196 21.1896H9.78181C9.56738 21.1896 9.37439 21.0181 9.37439 20.7822C9.37439 20.5677 9.54594 20.3748 9.78181 20.3748H12.7196C12.934 20.3748 13.127 20.5463 13.127 20.7822C13.127 21.0181 12.9554 21.1896 12.7196 21.1896Z" fill="#E9C400"/>
<path d="M6.82268 21.1896H5.40742C5.19299 21.1896 5 21.018 5 20.7822V19.3669C5 19.1525 5.17155 18.9595 5.40742 18.9595C5.6433 18.9595 5.81485 19.131 5.81485 19.3669V20.3747H6.82268C7.03712 20.3747 7.23011 20.5463 7.23011 20.7822C7.23011 21.018 7.05856 21.1896 6.82268 21.1896Z" fill="#E9C400"/>
<path d="M5.42891 16.3649C5.21447 16.3649 5.02148 16.1934 5.02148 15.9575V12.5266C5.02148 12.3121 5.19303 12.1191 5.42891 12.1191C5.66478 12.1191 5.83633 12.2907 5.83633 12.5266V15.9575C5.83633 16.1719 5.64334 16.3649 5.42891 16.3649Z" fill="#E9C400"/>
<path d="M5.42891 9.50306C5.21447 9.50306 5.02148 9.33151 5.02148 9.09563V7.68037C5.02148 7.46594 5.19303 7.27295 5.42891 7.27295H6.84417C7.0586 7.27295 7.25159 7.4445 7.25159 7.68037C7.25159 7.89481 7.08005 8.0878 6.84417 8.0878H5.83633V9.09563C5.83633 9.31007 5.64334 9.50306 5.42891 9.50306Z" fill="#E9C400"/>
<path d="M18.6165 8.0878H15.6787C15.4643 8.0878 15.2713 7.91625 15.2713 7.68037C15.2713 7.46594 15.4429 7.27295 15.6787 7.27295H18.6165C18.8309 7.27295 19.0239 7.4445 19.0239 7.68037C19.0239 7.91625 18.8524 8.0878 18.6165 8.0878ZM12.7196 8.0878H9.78181C9.56738 8.0878 9.37439 7.91625 9.37439 7.68037C9.37439 7.46594 9.54594 7.27295 9.78181 7.27295H12.7196C12.934 7.27295 13.127 7.4445 13.127 7.68037C13.127 7.91625 12.9554 8.0878 12.7196 8.0878Z" fill="#E9C400"/>
<path d="M22.9695 9.50306C22.7551 9.50306 22.5621 9.33151 22.5621 9.09563V8.0878H21.5543C21.3398 8.0878 21.1469 7.91625 21.1469 7.68037C21.1469 7.46594 21.3184 7.27295 21.5543 7.27295H22.9695C23.184 7.27295 23.377 7.4445 23.377 7.68037V9.09563C23.377 9.31007 23.2054 9.50306 22.9695 9.50306Z" fill="#E9C400"/>
<path d="M22.9696 16.3649C22.7551 16.3649 22.5621 16.1934 22.5621 15.9575V12.5266C22.5621 12.3121 22.7337 12.1191 22.9696 12.1191C23.2054 12.1191 23.377 12.2907 23.377 12.5266V15.9575C23.377 16.1719 23.2054 16.3649 22.9696 16.3649Z" fill="#E9C400"/>
<path d="M25.3927 16.8153H21.5114C20.4392 16.8153 19.5601 15.9361 19.5601 14.864V13.5988C19.5601 12.5266 20.4392 11.6475 21.5114 11.6475H25.3927C25.6071 11.6475 25.8001 11.819 25.8001 12.0549V16.4079C25.7786 16.6223 25.6071 16.8153 25.3927 16.8153ZM21.5114 12.4409C20.8681 12.4409 20.3535 12.9555 20.3535 13.5988V14.864C20.3535 15.5073 20.8681 16.0219 21.5114 16.0219H24.9852V12.4409H21.5114Z" fill="#E9C400"/>
<path d="M25.3926 12.0334H21.5113C20.6536 12.0334 19.9674 12.7411 19.9674 13.5774V14.8425C19.9674 15.7003 20.675 16.3864 21.5113 16.3864H25.3926V12.0334Z" fill="#E9C400"/>
<path d="M25.3927 16.8153H21.5114C20.4392 16.8153 19.5601 15.9361 19.5601 14.864V13.5988C19.5601 12.5266 20.4392 11.6475 21.5114 11.6475H25.3927C25.6071 11.6475 25.8001 11.819 25.8001 12.0549V16.4079C25.7786 16.6223 25.6071 16.8153 25.3927 16.8153ZM21.5114 12.4409C20.8681 12.4409 20.3535 12.9555 20.3535 13.5988V14.864C20.3535 15.5073 20.8681 16.0219 21.5114 16.0219H24.9852V12.4409H21.5114Z" fill="#E9C400"/>
<path d="M22.0688 15.2711C22.6491 15.2711 23.1195 14.8007 23.1195 14.2204C23.1195 13.6401 22.6491 13.1697 22.0688 13.1697C21.4885 13.1697 21.0181 13.6401 21.0181 14.2204C21.0181 14.8007 21.4885 15.2711 22.0688 15.2711Z" fill="#323232"/>
<path d="M22.0689 15.6787C21.2755 15.6787 20.6107 15.0354 20.6107 14.2206C20.6107 13.4272 21.254 12.7625 22.0689 12.7625C22.8623 12.7625 23.527 13.4058 23.527 14.2206C23.527 15.0354 22.8623 15.6787 22.0689 15.6787ZM22.0689 13.5773C21.7043 13.5773 21.4256 13.8775 21.4256 14.2206C21.4256 14.5851 21.7258 14.8639 22.0689 14.8639C22.4334 14.8639 22.7122 14.5637 22.7122 14.2206C22.7122 13.8561 22.4334 13.5773 22.0689 13.5773Z" fill="#E9C400"/>
</svg>
