<svg width="47" height="53" viewBox="0 0 47 53" fill="none" xmlns="http://www.w3.org/2000/svg">
<path d="M20.0425 3.55078C18.3921 3.55078 16.7734 3.94222 15.1865 4.7251C14.5518 5.10596 14.0439 5.61377 13.6631 6.24854C13.3669 6.75635 13.2188 7.46517 13.2188 8.375V24.1807C14.2767 26.1484 15.9906 27.5026 18.3604 28.2432C19.376 28.5394 20.3599 28.6875 21.312 28.6875C21.4178 28.6875 21.5342 28.6875 21.6611 28.6875C21.7458 28.6875 22.1689 28.6663 22.9307 28.624C24.9408 28.4124 26.6335 27.7565 28.0088 26.6562C30.5055 24.6462 31.7539 21.1761 31.7539 16.2461C31.7539 13.707 31.2461 11.4219 30.2305 9.39062C29.3418 7.61328 27.9876 6.15332 26.168 5.01074C24.6022 4.03743 22.5604 3.55078 20.0425 3.55078ZM0.904297 49C3.52799 48.4922 5.51693 47.0111 6.87109 44.5566L6.93457 44.3027V8.375C6.93457 7.86719 6.79704 7.49691 6.52197 7.26416C6.14111 6.94678 5.49577 6.68229 4.58594 6.4707C2.72396 6.04753 1.49674 5.81478 0.904297 5.77246C2.36426 5.11654 5.60156 3.91048 10.6162 2.1543C14.1709 0.905924 17.2389 0.281738 19.8203 0.281738C19.9049 0.281738 19.9896 0.281738 20.0742 0.281738C23.2269 0.281738 25.8717 0.715495 28.0088 1.58301C30.167 2.42936 31.9655 3.50846 33.4043 4.82031C35.3721 6.61882 36.7686 8.52311 37.5938 10.5332C38.1439 11.6758 38.4824 13.5801 38.6094 16.2461C38.5036 20.3932 37.2975 23.694 34.9912 26.1484C33.235 28.0104 31.2673 29.4281 29.0879 30.4014C29.8708 30.8457 30.5267 31.3853 31.0557 32.02C32.1348 33.3319 34.0391 37.0558 36.7686 43.1919L37.4351 44.5884C38.3449 46.3446 39.4451 47.2227 40.7358 47.2227C40.7782 47.2227 40.8205 47.2227 40.8628 47.2227C42.0054 47.2227 43.0633 46.8206 44.0366 46.0166C45.0946 45.0856 45.9092 44.4085 46.4805 43.9854C46.2054 46.6514 45.3167 48.7673 43.8145 50.333C42.1641 52.0469 40.4608 52.9038 38.7046 52.9038C38.6623 52.9038 38.62 52.9038 38.5776 52.9038C36.5675 52.9038 34.8219 51.9093 33.3408 49.9204C33.0234 49.4972 32.3887 48.397 31.4365 46.6196L26.8979 37.0029C25.4803 34.2523 23.9674 32.549 22.3594 31.8931L22.1689 31.8296C21.7035 31.8296 21.2168 31.819 20.709 31.7979C17.6621 31.6709 15.1654 30.7822 13.2188 29.1318V44.3027L13.2822 44.5884C14.4248 46.937 16.4137 48.4076 19.249 49H0.904297Z" fill="#E9C400"/>
</svg>
