<?xml version="1.0" standalone="no"?>
<!DOCTYPE svg PUBLIC "-//W3C//DTD SVG 20010904//EN"
 "http://www.w3.org/TR/2001/REC-SVG-20010904/DTD/svg10.dtd">
<svg version="1.0" xmlns="http://www.w3.org/2000/svg"
 width="848.000000pt" height="848.000000pt" viewBox="0 0 848.000000 848.000000"
 preserveAspectRatio="xMidYMid meet">
<metadata>
Created by potrace 1.14, written by Peter Selinger 2001-2017
</metadata>
<g transform="translate(0.000000,848.000000) scale(0.100000,-0.100000)"
fill="#000000" stroke="none">
<path d="M3475 8420 c-368 -21 -808 -122 -1335 -307 -601 -211 -960 -342
-1273 -466 -186 -74 -204 -83 -175 -88 18 -4 76 -15 128 -24 114 -21 382 -78
462 -100 146 -38 255 -101 291 -168 l22 -42 0 -2935 0 -2935 -44 -70 c-189
-301 -425 -496 -731 -601 l-95 -33 1370 0 1370 0 -110 37 c-328 113 -584 324
-725 596 l-40 77 0 1230 c0 682 4 1229 9 1229 4 0 26 -14 47 -31 67 -54 195
-135 289 -182 266 -132 532 -193 890 -203 l200 -6 74 -34 c199 -93 389 -287
570 -586 92 -152 114 -196 506 -1028 376 -800 538 -1109 664 -1275 204 -267
452 -419 725 -444 185 -18 335 9 501 88 135 65 258 155 384 281 203 202 340
452 408 740 19 85 52 274 48 279 -5 4 -126 -94 -265 -214 -147 -126 -176 -148
-261 -194 -130 -70 -194 -86 -354 -86 l-140 0 -79 38 c-94 45 -198 142 -271
256 -38 59 -215 409 -215 425 0 15 -320 698 -445 951 -166 334 -260 505 -360
655 -94 140 -168 210 -370 354 -11 8 -18 16 -15 17 3 2 63 33 135 69 303 151
658 429 866 678 275 329 423 685 495 1187 46 324 -3 868 -103 1150 -70 195
-220 456 -371 645 -298 371 -652 639 -1087 824 -379 161 -677 225 -1150 246
-230 10 -250 10 -440 0z m610 -530 c369 -61 629 -191 899 -450 439 -421 640
-1082 571 -1880 -7 -91 -21 -210 -30 -265 -128 -796 -555 -1266 -1260 -1386
-164 -28 -496 -31 -635 -5 -344 63 -608 194 -816 402 -87 88 -208 251 -219
297 -3 12 -4 630 -3 1372 l3 1350 22 66 c36 104 125 221 225 295 132 98 424
197 663 225 116 13 445 2 580 -21z"/>
</g>
</svg>
